<mxfile host="Electron" agent="Mozilla/5.0 (Windows NT 10.0; Win64; x64) AppleWebKit/537.36 (KHTML, like Gecko) draw.io/26.0.4 Chrome/128.0.6613.186 Electron/32.2.5 Safari/537.36" version="26.0.4">
  <diagram name="Page-1" id="I-Mo-_lXEKCe2OgIfjN4">
    <mxGraphModel dx="512" dy="303" grid="1" gridSize="10" guides="1" tooltips="1" connect="1" arrows="1" fold="1" page="1" pageScale="1" pageWidth="1654" pageHeight="1169" math="0" shadow="0">
      <root>
        <mxCell id="0" />
        <mxCell id="1" parent="0" />
        <mxCell id="ltFmfNfCFPZzDUB9FxHQ-1" value="" style="rounded=0;whiteSpace=wrap;html=1;rotation=90;" vertex="1" parent="1">
          <mxGeometry x="480" y="282.5" width="120" height="75" as="geometry" />
        </mxCell>
        <mxCell id="3uVYLcxcqhJzNnzzvnzw-7" style="edgeStyle=orthogonalEdgeStyle;rounded=0;orthogonalLoop=1;jettySize=auto;html=1;exitX=1;exitY=0.5;exitDx=0;exitDy=0;entryX=0;entryY=0.5;entryDx=0;entryDy=0;" parent="1" target="3uVYLcxcqhJzNnzzvnzw-6" edge="1">
          <mxGeometry relative="1" as="geometry">
            <mxPoint x="580.0000000000027" y="320" as="sourcePoint" />
          </mxGeometry>
        </mxCell>
        <mxCell id="3uVYLcxcqhJzNnzzvnzw-2" value="IP" style="text;html=1;align=center;verticalAlign=middle;whiteSpace=wrap;rounded=0;" parent="1" vertex="1">
          <mxGeometry x="510" y="305" width="60" height="30" as="geometry" />
        </mxCell>
        <mxCell id="3uVYLcxcqhJzNnzzvnzw-5" style="edgeStyle=orthogonalEdgeStyle;rounded=0;orthogonalLoop=1;jettySize=auto;html=1;exitX=1;exitY=0.5;exitDx=0;exitDy=0;entryX=0;entryY=0.5;entryDx=0;entryDy=0;" parent="1" source="3uVYLcxcqhJzNnzzvnzw-4" edge="1">
          <mxGeometry relative="1" as="geometry">
            <mxPoint x="499.99999999999727" y="320" as="targetPoint" />
          </mxGeometry>
        </mxCell>
        <mxCell id="3uVYLcxcqhJzNnzzvnzw-4" value="des_data [63:0]" style="text;html=1;align=center;verticalAlign=middle;whiteSpace=wrap;rounded=0;" parent="1" vertex="1">
          <mxGeometry x="340" y="305" width="90" height="30" as="geometry" />
        </mxCell>
        <mxCell id="3uVYLcxcqhJzNnzzvnzw-6" value="ip_in [63:0]" style="text;html=1;align=center;verticalAlign=middle;whiteSpace=wrap;rounded=0;" parent="1" vertex="1">
          <mxGeometry x="640" y="305" width="70" height="30" as="geometry" />
        </mxCell>
        <mxCell id="3uVYLcxcqhJzNnzzvnzw-8" value="" style="shape=curlyBracket;whiteSpace=wrap;html=1;rounded=1;labelPosition=left;verticalLabelPosition=middle;align=right;verticalAlign=middle;size=0.3333333333333333;" parent="1" vertex="1">
          <mxGeometry x="710" y="290" width="20" height="60" as="geometry" />
        </mxCell>
        <mxCell id="3uVYLcxcqhJzNnzzvnzw-9" value="l0 = ip_in [63:32]" style="text;html=1;align=center;verticalAlign=middle;whiteSpace=wrap;rounded=0;" parent="1" vertex="1">
          <mxGeometry x="720" y="275" width="120" height="30" as="geometry" />
        </mxCell>
        <mxCell id="3uVYLcxcqhJzNnzzvnzw-11" value="r0 = ip_in [31:0]" style="text;html=1;align=center;verticalAlign=middle;whiteSpace=wrap;rounded=0;" parent="1" vertex="1">
          <mxGeometry x="720" y="335" width="120" height="30" as="geometry" />
        </mxCell>
      </root>
    </mxGraphModel>
  </diagram>
</mxfile>
